<svg xmlns="http://www.w3.org/2000/svg" width="178" height="43" viewBox="0 0 178 43">
  <g id="Group_912" data-name="Group 912" transform="translate(-237.187 -278.296)">
    <path id="Path_5996" data-name="Path 5996" d="M324.683,322.154a20.669,20.669,0,0,0,0-28l-1.513-1.647H459.583a5.693,5.693,0,0,1,5.7,5.677v19.945a5.693,5.693,0,0,1-5.7,5.676H323.171Z" transform="translate(-51.08 -8.357)" fill="#e4001b"/>
    <path id="Path_5997" data-name="Path 5997" d="M456.383,292.074a4.715,4.715,0,0,1,4.71,4.695v19.949a4.714,4.714,0,0,1-4.71,4.694H322.21a21.658,21.658,0,0,0,0-29.338H456.383m0-1.967H317.73l3.025,3.3a19.7,19.7,0,0,1,0,26.682l-3.024,3.295H456.383a6.68,6.68,0,0,0,6.684-6.662V296.769a6.681,6.681,0,0,0-6.684-6.662" transform="translate(-47.879 -6.948)" fill="#fff"/>
    <path id="Path_5998" data-name="Path 5998" d="M260.153,321.719A20.513,20.513,0,1,1,280.713,301.2a20.567,20.567,0,0,1-20.561,20.518" transform="translate(-1.409 -1.409)" fill="#e4001b"/>
    <path id="Path_5999" data-name="Path 5999" d="M258.743,280.265a19.531,19.531,0,1,1-19.583,19.527,19.542,19.542,0,0,1,19.583-19.527m0-1.969a21.5,21.5,0,1,0,21.548,21.5,21.55,21.55,0,0,0-21.548-21.5" fill="#fff"/>
    <path id="Path_6000" data-name="Path 6000" d="M285.054,298.864a3.133,3.133,0,1,0-3.133-3.133,3.131,3.131,0,0,0,3.133,3.133" transform="translate(-26.315 -8.414)" fill="#fff"/>
    <path id="Path_6001" data-name="Path 6001" d="M283.575,311.618H278.7a3.208,3.208,0,0,0-3.3,4.2l4.63,17.564c.609,2.31,1.605,2.31,2.213,0l4.631-17.564a3.21,3.21,0,0,0-3.3-4.2" transform="translate(-22.399 -19.705)" fill="#fff"/>
    <path id="Path_6002" data-name="Path 6002" d="M367.9,299.58a7.43,7.43,0,0,0-3.85.987l2.712-9.587a.423.423,0,0,0-.08-.372.455.455,0,0,0-.348-.171h-3.226a.352.352,0,0,0-.346.251l-6.426,22.717a.4.4,0,0,0,.083.367.439.439,0,0,0,.345.173h3.225a.346.346,0,0,0,.34-.238l.159-.474a4.5,4.5,0,0,0,3.472,1.146,7.681,7.681,0,0,0,5.2-2.121,10.81,10.81,0,0,0,3.228-5.219,6.656,6.656,0,0,0-.376-5.158,4.35,4.35,0,0,0-4.115-2.3m.408,7.24a6.026,6.026,0,0,1-1.736,2.845,3.919,3.919,0,0,1-2.739,1.121A1.9,1.9,0,0,1,362,309.774a3.413,3.413,0,0,1-.168-2.649,6.016,6.016,0,0,1,1.737-2.8,3.939,3.939,0,0,1,2.7-1.153,1.908,1.908,0,0,1,1.876,1.023,3.451,3.451,0,0,1,.166,2.625" transform="translate(-70.233 -7.142)" fill="#fff"/>
    <path id="Path_6003" data-name="Path 6003" d="M414.024,313.248a.451.451,0,0,0-.347-.174h-3.161a.345.345,0,0,0-.341.254l-.147.514a4.91,4.91,0,0,0-3.611-1.2,7.567,7.567,0,0,0-5.12,2.1,10.517,10.517,0,0,0-3.161,5.036,7.232,7.232,0,0,0,.266,5.275,4.283,4.283,0,0,0,4.2,2.386,7.423,7.423,0,0,0,3.854-.987l0,.013a.413.413,0,0,0,.083.367.443.443,0,0,0,.348.173h3.157a.347.347,0,0,0,.344-.255l3.717-13.134a.413.413,0,0,0-.082-.371m-5.338,6.634a5.863,5.863,0,0,1-1.767,2.923,4.077,4.077,0,0,1-2.709,1.043,2.067,2.067,0,0,1-1.95-.943,3.438,3.438,0,0,1-.117-2.736,5.778,5.778,0,0,1,1.769-2.876,4.1,4.1,0,0,1,2.713-1.061,2.038,2.038,0,0,1,1.928.956,3.4,3.4,0,0,1,.133,2.692" transform="translate(-94.668 -20.256)" fill="#fff"/>
    <path id="Path_6004" data-name="Path 6004" d="M452.448,314.238a.238.238,0,0,0,.01-.047l0-.012h0a.42.42,0,0,0-.089-.314.455.455,0,0,0-.348-.173H448.8a.345.345,0,0,0-.343.254l-2.016,7.118c-.679,2.4-1.789,3.569-3.4,3.569a1.4,1.4,0,0,1-1.168-.418c-.265-.336-.478-1.108.019-2.86l2.015-7.117a.429.429,0,0,0-.083-.371.454.454,0,0,0-.349-.173h-3.226a.345.345,0,0,0-.342.254l-2.183,7.716c-.605,2.135-.477,3.768.38,4.853.811,1.024,2.249,1.545,4.279,1.545a10.033,10.033,0,0,0,2.247-.244l-2.393,8.862a.434.434,0,0,0,.081.37.459.459,0,0,0,.35.172h3.225a.349.349,0,0,0,.345-.253l6.053-22.161Z" transform="translate(-117.997 -20.926)" fill="#fff"/>
    <path id="Path_6005" data-name="Path 6005" d="M491.553,290.608a.446.446,0,0,0-.345-.171h-3.226a.347.347,0,0,0-.344.251l-2.906,10.048a4.777,4.777,0,0,0-3.528-1.156,7.568,7.568,0,0,0-5.118,2.1,10.522,10.522,0,0,0-3.161,5.037,7.227,7.227,0,0,0,.267,5.275,4.307,4.307,0,0,0,4.234,2.386,7.17,7.17,0,0,0,3.784-.975.415.415,0,0,0,.083.367.45.45,0,0,0,.347.173h3.228a.348.348,0,0,0,.341-.255l6.429-22.711a.421.421,0,0,0-.084-.372m-8.115,16.212a5.907,5.907,0,0,1-1.754,2.876A3.985,3.985,0,0,1,479,310.786a2.01,2.01,0,0,1-1.913-.985,3.38,3.38,0,0,1-.159-2.677,5.728,5.728,0,0,1,1.82-2.823,4.15,4.15,0,0,1,2.683-1.129,1.926,1.926,0,0,1,1.828,1,3.312,3.312,0,0,1,.182,2.645" transform="translate(-138.762 -7.142)" fill="#fff"/>
    <path id="Path_6006" data-name="Path 6006" d="M525.337,314.784a5.484,5.484,0,0,0-4.817-2.142,9.018,9.018,0,0,0-5.771,2.041,10.047,10.047,0,0,0-3.438,5.213,6.14,6.14,0,0,0,.568,5.388,5.488,5.488,0,0,0,4.813,2.158,9,9,0,0,0,5.754-2.041,10.062,10.062,0,0,0,3.442-5.231,6.141,6.141,0,0,0-.552-5.387m-3.483,5.112a6.027,6.027,0,0,1-1.724,2.8,3.906,3.906,0,0,1-2.714,1.152,2.072,2.072,0,0,1-1.951-.943,3.378,3.378,0,0,1-.131-2.687,5.847,5.847,0,0,1,1.789-2.874,4.114,4.114,0,0,1,2.743-1.111,1.871,1.871,0,0,1,1.862,1,3.559,3.559,0,0,1,.127,2.661" transform="translate(-161.394 -20.256)" fill="#fff"/>
    <path id="Path_6007" data-name="Path 6007" d="M558.12,312.642a7.085,7.085,0,0,0-3.715.973.416.416,0,0,0-.084-.367.454.454,0,0,0-.348-.173h-3.226a.348.348,0,0,0-.342.254l-3.719,13.139a.418.418,0,0,0,.083.367.448.448,0,0,0,.347.174h3.225a.349.349,0,0,0,.346-.256l1.881-6.651c.789-2.788,2.036-4.2,3.709-4.2a1.215,1.215,0,0,1,1.023.379c.287.359.5,1.213-.068,3.234l-1.965,6.952a.407.407,0,0,0,.082.367.445.445,0,0,0,.347.174h3.193a.352.352,0,0,0,.345-.256l2.268-8.013c.639-2.256.552-3.856-.266-4.89a3.751,3.751,0,0,0-3.116-1.208" transform="translate(-182.445 -20.255)" fill="#fff"/>
    <path id="Path_6008" data-name="Path 6008" d="M598.075,319.709a.352.352,0,0,0,.346-.254l.119-.432c.632-2.23.543-4.035-.268-5.363-.833-1.369-2.331-2.065-4.444-2.065a8.136,8.136,0,0,0-5.446,2.032,10.694,10.694,0,0,0-3.282,5.339,6.316,6.316,0,0,0,.429,5.3,5.083,5.083,0,0,0,4.605,2.122,8.518,8.518,0,0,0,7.442-4.249.385.385,0,0,0,.012-.387.454.454,0,0,0-.326-.245l-2.919-.5a.361.361,0,0,0-.381.175,3.577,3.577,0,0,1-3.256,2.083,1.436,1.436,0,0,1-1.533-.942,4.372,4.372,0,0,1,0-2.617Zm-6.81-4.234a3.269,3.269,0,0,1,2.252-.986,1.51,1.51,0,0,1,1.511.789,2.62,2.62,0,0,1,.2,1.836h-5.178a5.192,5.192,0,0,1,1.217-1.639" transform="translate(-204.943 -19.638)" fill="#fff"/>
    <path id="Path_6009" data-name="Path 6009" d="M630.506,311.982a3.367,3.367,0,0,0-1.644-.387,6.318,6.318,0,0,0-3.562,1.015l.013-.039a.435.435,0,0,0-.082-.371.455.455,0,0,0-.347-.174h-3.225a.352.352,0,0,0-.347.257L617.6,325.418a.417.417,0,0,0,.082.37.45.45,0,0,0,.347.172h3.225a.35.35,0,0,0,.345-.252l1.675-5.921c.877-3.1,2.323-4.6,4.421-4.6a1.866,1.866,0,0,1,1.2.372.437.437,0,0,0,.343.087.347.347,0,0,0,.257-.207l1.227-2.928a.433.433,0,0,0-.208-.529" transform="translate(-224.268 -19.638)" fill="#fff"/>
    <path id="Path_6010" data-name="Path 6010" d="M526.154,305.009a1.767,1.767,0,0,0,1.285-.532,1.921,1.921,0,0,0,.583-1.277,1.58,1.58,0,0,0-.448-1.241,1.673,1.673,0,0,0-1.225-.493,1.907,1.907,0,0,0-1.875,1.772,1.656,1.656,0,0,0,1.679,1.772" transform="translate(-169.333 -13.654)" fill="#fff"/>
    <path id="Path_6011" data-name="Path 6011" d="M537.254,305.009a1.771,1.771,0,0,0,1.283-.532,1.907,1.907,0,0,0,.583-1.277,1.559,1.559,0,0,0-.45-1.241,1.66,1.66,0,0,0-1.221-.493,1.908,1.908,0,0,0-1.876,1.772,1.657,1.657,0,0,0,1.681,1.772" transform="translate(-175.874 -13.654)" fill="#fff"/>
  </g>
</svg>
