<?xml version="1.0" encoding="UTF-8"?>
<svg id="Objects" xmlns="http://www.w3.org/2000/svg" viewBox="0 0 36 36">
  <defs>
    <style>
      .cls-1 {
        fill: #f2f2f2;
      }

      .cls-2 {
        fill: #d65158;
      }

      .cls-3 {
        fill: #1a1a1a;
      }

      .cls-4 {
        fill: #54c45f;
      }
    </style>
  </defs>
  <circle class="cls-1" cx="17.71" cy="18.7" r="16.5"/>
  <path class="cls-4" d="m32.12,18.7c0,7.96-6.45,14.41-14.41,14.41S3.3,26.66,3.3,18.7s6.45-14.41,14.41-14.41,14.41,6.45,14.41,14.41Z"/>
  <g>
    <path class="cls-3" d="m24.09,17.69v-2.43c0-.57-.46-1.03-1.03-1.03s-1.03.46-1.03,1.03v2.43h2.07Z"/>
    <path class="cls-3" d="m13.7,17.69v-2.43c0-.57-.46-1.03-1.03-1.03s-1.03.46-1.03,1.03v2.43h2.07Z"/>
    <path class="cls-3" d="m14.4,11.5c-.09,0-.18-.03-.25-.09-.85-.72-2.13-.72-2.98,0-.16.14-.41.12-.55-.04-.14-.16-.12-.41.04-.55,1.13-.97,2.85-.97,3.98,0,.16.14.18.38.04.55-.08.09-.19.14-.29.14Z"/>
    <path class="cls-3" d="m24.8,12.27c-.09,0-.18-.03-.25-.09-.85-.72-2.13-.72-2.98,0-.16.14-.41.12-.55-.04-.14-.16-.12-.41.04-.55,1.13-.97,2.85-.97,3.98,0,.16.14.18.38.04.54-.08.09-.19.14-.29.14Z"/>
    <path class="cls-1" d="m12.66,15.04c0,.18-.15.33-.33.33s-.33-.15-.33-.33.15-.33.33-.33.33.15.33.33Z"/>
    <path class="cls-1" d="m23.06,15.04c0,.18-.15.33-.33.33s-.33-.15-.33-.33.15-.33.33-.33.33.15.33.33Z"/>
    <path class="cls-3" d="m8.58,20.34c.56,4.59,4.47,8.15,9.21,8.15s8.65-3.56,9.21-8.15H8.58Z"/>
    <path class="cls-2" d="m22.74,27.06c-1.43-.91-3.13-1.43-4.95-1.43s-3.52.53-4.95,1.43c1.43.91,3.13,1.43,4.95,1.43s3.52-.53,4.95-1.43Z"/>
    <path class="cls-1" d="m26.75,21.62c.11-.42.2-.84.25-1.28H8.58c.05.44.14.86.25,1.28h17.91Z"/>
  </g>
</svg>