<?xml version="1.0" encoding="UTF-8"?>
<svg id="Objects" xmlns="http://www.w3.org/2000/svg" viewBox="0 0 36 36">
  <defs>
    <style>
      .cls-1 {
        fill: #f2f2f2;
      }

      .cls-2 {
        fill: #abd379;
      }

      .cls-3 {
        fill: #1a1a1a;
      }
    </style>
  </defs>
  <circle class="cls-1" cx="18.53" cy="17.88" r="16.5"/>
  <g>
    <path class="cls-2" d="m32.94,17.86c0,7.96-6.45,14.41-14.41,14.41s-14.41-6.45-14.41-14.41S10.57,3.45,18.53,3.45s14.41,6.45,14.41,14.41Z"/>
    <g>
      <path class="cls-3" d="m23.68,17.45c.41,0,.77.12,1.03.32v-2.43c0-.57-.46-1.03-1.03-1.03s-1.03.46-1.03,1.03v2.43c.26-.2.63-.32,1.03-.32Z"/>
      <path class="cls-3" d="m13.28,17.45c.41,0,.77.12,1.03.32v-2.43c0-.57-.46-1.03-1.03-1.03s-1.03.46-1.03,1.03v2.43c.26-.2.63-.32,1.03-.32Z"/>
      <path class="cls-3" d="m15.02,10.94c-.09,0-.18-.03-.25-.09-.85-.72-2.13-.72-2.98,0-.16.14-.41.12-.55-.04s-.12-.41.04-.55c1.13-.97,2.85-.97,3.98,0,.16.14.18.38.04.55-.08.09-.19.14-.29.14Z"/>
      <path class="cls-3" d="m25.42,10.62c-.09,0-.18-.03-.25-.09-.85-.72-2.13-.72-2.98,0-.16.14-.41.12-.55-.04-.14-.16-.12-.41.04-.55,1.13-.97,2.85-.97,3.98,0,.16.14.18.38.04.55-.08.09-.19.14-.29.14Z"/>
      <path class="cls-1" d="m13.28,15.11c0,.18-.15.33-.33.33s-.33-.15-.33-.33.15-.33.33-.33.33.15.33.33Z"/>
      <path class="cls-1" d="m23.68,15.11c0,.18-.15.33-.33.33s-.33-.15-.33-.33.15-.33.33-.33.33.15.33.33Z"/>
      <path class="cls-3" d="m19.55,27.33c-1.05,0-2.1-.32-3-.94-.18-.12-.22-.36-.1-.54.12-.18.36-.22.54-.1,1.37.95,3.14,1.06,4.61.31,1.48-.76,2.42-2.26,2.45-3.92,0-.21.18-.38.39-.38,0,0,0,0,0,0,.21,0,.38.18.38.39-.04,1.95-1.14,3.71-2.87,4.59-.76.39-1.58.58-2.4.58Z"/>
    </g>
  </g>
</svg>