<?xml version="1.0" encoding="UTF-8"?>
<svg id="Objects" xmlns="http://www.w3.org/2000/svg" viewBox="0 0 36 36">
  <defs>
    <style>
      .cls-1 {
        fill: #f2f2f2;
      }

      .cls-2 {
        fill: #f2bf3f;
      }

      .cls-3 {
        fill: #1a1a1a;
      }
    </style>
  </defs>
  <circle class="cls-1" cx="18.53" cy="17.3" r="16.5"/>
  <g>
    <path class="cls-2" d="m32.94,17.3c0,7.96-6.45,14.41-14.41,14.41s-14.41-6.45-14.41-14.41S10.57,2.89,18.53,2.89s14.41,6.45,14.41,14.41Z"/>
    <g>
      <path class="cls-3" d="m21.88,24.24h-6.62c-.26,0-.46-.21-.46-.46s.21-.46.46-.46h6.62c.26,0,.46.21.46.46s-.21.46-.46.46Z"/>
      <path class="cls-3" d="m15.52,11.85c-.09,0-.18-.03-.25-.09-1.32-1.12-3.3-1.12-4.61,0-.16.14-.41.12-.55-.04s-.12-.41.04-.55c1.6-1.36,4.02-1.36,5.62,0,.16.14.18.38.04.55-.08.09-.19.14-.29.14Z"/>
      <path class="cls-3" d="m26.35,12.03c-.07,0-.15-.02-.21-.06-1.17-.78-2.75-.78-3.93,0-.18.12-.42.07-.54-.11-.12-.18-.07-.42.11-.54,1.43-.95,3.35-.95,4.78,0,.18.12.23.36.11.54-.07.11-.2.17-.32.17Z"/>
      <path class="cls-3" d="m25.31,16.89c0,.64-.52,1.16-1.16,1.16s-1.16-.52-1.16-1.16.52-1.16,1.16-1.16,1.16.52,1.16,1.16Z"/>
      <path class="cls-1" d="m24.15,16.55c0,.18-.15.33-.33.33s-.33-.15-.33-.33.15-.33.33-.33.33.15.33.33Z"/>
      <path class="cls-3" d="m14.22,16.89c0,.64-.52,1.16-1.16,1.16s-1.16-.52-1.16-1.16.52-1.16,1.16-1.16,1.16.52,1.16,1.16Z"/>
      <path class="cls-1" d="m13.06,16.55c0,.18-.15.33-.33.33s-.33-.15-.33-.33.15-.33.33-.33.33.15.33.33Z"/>
    </g>
  </g>
</svg>