<?xml version="1.0" encoding="UTF-8"?>
<svg id="Objects" xmlns="http://www.w3.org/2000/svg" viewBox="0 0 36 36">
  <defs>
    <style>
      .cls-1 {
        fill: #f2f2f2;
      }

      .cls-2 {
        fill: #f8971d;
      }

      .cls-3 {
        fill: #1a1a1a;
      }
    </style>
  </defs>
  <circle class="cls-1" cx="18.53" cy="18.06" r="16.5"/>
  <g>
    <path class="cls-2" d="m32.94,18.06c0,7.96-6.45,14.41-14.41,14.41s-14.41-6.45-14.41-14.41S10.57,3.65,18.53,3.65s14.41,6.45,14.41,14.41Z"/>
    <g>
      <path class="cls-3" d="m25,13.12h0c-1.28,0-2.54-.59-3.36-1.58-.14-.16-.11-.41.05-.54.16-.14.41-.11.54.05.68.81,1.71,1.3,2.77,1.3.21,0,.39.17.39.39s-.17.39-.39.39Z"/>
      <path class="cls-3" d="m12.22,13.12c-.21,0-.39-.17-.39-.39s.17-.39.39-.39c1.06,0,2.09-.49,2.77-1.3.14-.16.38-.19.54-.05.16.14.19.38.05.54-.82.99-2.08,1.58-3.36,1.58h0Z"/>
      <g>
        <path class="cls-3" d="m14.87,15.21c0,.73-.59,1.33-1.33,1.33s-1.33-.59-1.33-1.33.59-1.33,1.33-1.33,1.33.59,1.33,1.33Z"/>
        <path class="cls-1" d="m13.34,14.75c0,.18-.15.33-.33.33s-.33-.15-.33-.33.15-.33.33-.33.33.15.33.33Z"/>
      </g>
      <g>
        <path class="cls-3" d="m25,15.21c0,.73-.59,1.33-1.33,1.33s-1.33-.59-1.33-1.33.59-1.33,1.33-1.33,1.33.59,1.33,1.33Z"/>
        <path class="cls-1" d="m23.45,14.75c0,.18-.15.33-.33.33s-.33-.15-.33-.33.15-.33.33-.33.33.15.33.33Z"/>
      </g>
      <path class="cls-3" d="m13.12,25.41c-.08,0-.15-.02-.23-.06-.22-.13-.3-.41-.18-.63.84-1.5,2.26-2.65,3.9-3.15,3.02-.93,6.33.4,7.87,3.15.13.22.05.51-.18.63-.22.13-.51.05-.63-.18-1.33-2.38-4.19-3.52-6.79-2.72-1.41.43-2.63,1.43-3.36,2.72-.09.15-.24.24-.41.24Z"/>
    </g>
  </g>
</svg>