<?xml version="1.0" encoding="UTF-8"?>
<svg id="Objects" xmlns="http://www.w3.org/2000/svg" viewBox="0 0 36 36">
  <defs>
    <style>
      .cls-1 {
        fill: #f2f2f2;
      }

      .cls-2 {
        fill: #fff;
      }

      .cls-3 {
        fill: #ed4442;
      }

      .cls-4 {
        fill: #1a1a1a;
      }
    </style>
  </defs>
  <circle class="cls-1" cx="18.96" cy="17.45" r="16.5"/>
  <g>
    <path class="cls-3" d="m33.37,17.45c0,7.96-6.45,14.41-14.41,14.41s-14.41-6.45-14.41-14.41S11,3.04,18.96,3.04s14.41,6.45,14.41,14.41Z"/>
    <g>
      <path class="cls-4" d="m21.83,27.89c3.66,0,5.08-4.81,1.97-6.75-1.42-.89-3.1-1.4-4.91-1.4s-3.48.51-4.91,1.4c-3.1,1.94-1.69,6.75,1.97,6.75h5.87Z"/>
      <path class="cls-2" d="m13.94,21.67c1.43.91,3.13.6,4.95.6s3.52.31,4.95-.6c-1.43-.91-3.13-1.43-4.95-1.43s-3.52.53-4.95,1.43Z"/>
    </g>
    <g>
      <path class="cls-4" d="m11.96,11.96c-.5-.27-.96-.61-1.36-1.02-.18-.19-.18-.49.01-.67.19-.18.49-.18.67.01.65.68,1.52,1.14,2.45,1.3.26.04.43.29.39.55-.04.26-.29.43-.55.39-.56-.1-1.11-.29-1.61-.55Z"/>
      <path class="cls-4" d="m26.22,12.17c-.54.27-1.12.44-1.72.51-.26.03-.49-.15-.53-.41-.03-.26.15-.49.41-.53.99-.12,1.92-.58,2.62-1.29.18-.19.48-.19.67,0,.19.18.19.48,0,.67-.42.43-.92.79-1.46,1.05Z"/>
      <g>
        <path class="cls-4" d="m13.48,15.35c0,.69-.56,1.25-1.25,1.25s-1.25-.56-1.25-1.25.56-1.25,1.25-1.25,1.25.56,1.25,1.25Z"/>
        <path class="cls-1" d="m12.21,14.97c0,.19-.16.35-.35.35s-.35-.16-.35-.35.16-.35.35-.35.35.16.35.35Z"/>
      </g>
      <g>
        <path class="cls-4" d="m27.2,15.35c0,.69-.56,1.25-1.25,1.25s-1.25-.56-1.25-1.25.56-1.25,1.25-1.25,1.25.56,1.25,1.25Z"/>
        <path class="cls-1" d="m25.92,14.97c0,.19-.16.35-.35.35s-.35-.16-.35-.35.16-.35.35-.35.35.16.35.35Z"/>
      </g>
    </g>
  </g>
</svg>